<svg id="Layer_1" data-name="Layer 1" xmlns="http://www.w3.org/2000/svg" xmlns:xlink="http://www.w3.org/1999/xlink" viewBox="0 0 60 60"><defs><style>.cls-1{fill:#fff;}.cls-1,.cls-10,.cls-11,.cls-12,.cls-2,.cls-3{fill-rule:evenodd;}.cls-2{fill-opacity:0.01;}.cls-3{fill:#2196f3;}.cls-4,.cls-6,.cls-7{fill:none;stroke:#42a5f5;stroke-width:4px;}.cls-5{mask:url(#mask);}.cls-6{stroke-linecap:square;}.cls-7{stroke-linecap:round;stroke-linejoin:round;}.cls-8{mask:url(#mask-2);}.cls-9{fill:#ebecf2;}.cls-10,.cls-11{fill:#dee1e3;}.cls-11{opacity:0.4;isolation:isolate;}.cls-12{fill:#c5c6cc;}</style><mask id="mask" x="0" y="0" width="60" height="60" maskUnits="userSpaceOnUse"><g id="mask0"><path class="cls-1" d="M30,60A30,30,0,1,0,0,30,30,30,0,0,0,30,60Z"/></g></mask><mask id="mask-2" x="13.21" y="13.23" width="33.28" height="33.5" maskUnits="userSpaceOnUse"><g id="mask1"><path class="cls-1" d="M40.19,19a1.41,1.41,0,0,1,.66-.2c1-.07,3.95-.15,4.58,1s-.9,3.6-1.46,4.45a1.47,1.47,0,0,1-.5.46L37.39,28.2l.84,17.1a.64.64,0,0,1-.31.59l-1.25.75a.66.66,0,0,1-.55.06l-.94-.33a.69.69,0,0,1-.37-.32L28.35,33.42,22,37.1l-.68,4.67a.65.65,0,0,1-.66.55h-.5a.65.65,0,0,1-.58-.38l-1.79-4c-1.23,0-2.38-.08-2.69-.62s.16-1.59.81-2.63l-2.56-3.53a.64.64,0,0,1,0-.7l.24-.43a.65.65,0,0,1,.81-.29l4.36,1.73,6.38-3.68L17.42,15.93a.62.62,0,0,1-.09-.48l.19-1a.64.64,0,0,1,.32-.45l1.27-.7a.65.65,0,0,1,.67,0l14.3,9.22Z"/></g></mask></defs><path class="cls-2" d="M30,60A22,22,0,1,0,8,38,22,22,0,0,0,30,60Z"/><path class="cls-3" d="M30,60A30,30,0,1,0,0,30,30,30,0,0,0,30,60Z"/><path class="cls-4" d="M58,30A28,28,0,1,1,30,2,28,28,0,0,1,58,30Z"/><g class="cls-5"><path class="cls-6" d="M2.71,22.88H56.54"/><path class="cls-6" d="M2.71,38.62H56.54"/><path class="cls-7" d="M29.25,4.5s-10,11.58-9.75,26.25S29.25,55.5,29.25,55.5"/><path class="cls-7" d="M30,4.5s10,11.58,9.75,26.25S30,55.5,30,55.5"/></g><path class="cls-1" d="M40.19,19a1.41,1.41,0,0,1,.66-.2c1-.07,3.95-.15,4.58,1s-.9,3.6-1.46,4.45a1.47,1.47,0,0,1-.5.46L37.39,28.2l.84,17.1a.64.64,0,0,1-.31.59l-1.25.75a.66.66,0,0,1-.55.06l-.94-.33a.69.69,0,0,1-.37-.32L28.35,33.42,22,37.1l-.68,4.67a.65.65,0,0,1-.66.55h-.5a.65.65,0,0,1-.58-.38l-1.79-4c-1.23,0-2.38-.08-2.69-.62s.16-1.59.81-2.63l-2.56-3.53a.64.64,0,0,1,0-.7l.24-.43a.65.65,0,0,1,.81-.29l4.36,1.73,6.38-3.68L17.42,15.93a.62.62,0,0,1-.09-.48l.19-1a.64.64,0,0,1,.32-.45l1.27-.7a.65.65,0,0,1,.67,0l14.3,9.22Z"/><g class="cls-8"><rect class="cls-9" x="23.29" y="23.8" width="12.41" height="1.31" transform="translate(-8.28 18.02) rotate(-30)"/><path class="cls-10" d="M37.92,45.89a.64.64,0,0,0,.31-.59l-.87-17.66L28.13,33l6.68,13.07a.69.69,0,0,0,.37.32l.94.33a.66.66,0,0,0,.55-.06Z"/><path class="cls-11" d="M17.84,37.8l-.09.05,1.81,4.08a.65.65,0,0,0,.58.38h.5a.65.65,0,0,0,.66-.55L22,36.83l-.46.27a1.52,1.52,0,0,1-.46.18A25.32,25.32,0,0,1,17.84,37.8Z"/><path class="cls-12" d="M28.25,33.21l9.13-5.27.1,2L30,36.55Z"/><path class="cls-10" d="M46.48,23,16.69,40.15s-.88-1.59-1.61-2.86l0,0a12,12,0,0,0,6.72-1.54L42.39,23.8A6.81,6.81,0,0,0,45.55,20C46,21.32,46.48,23,46.48,23Z"/></g></svg>